<svg width="40" height="40" viewBox="0 0 40 40" fill="none" xmlns="http://www.w3.org/2000/svg">
<g clip-path="url(#clip0_1487_10834)">
<path d="M35.8321 6.66663H19.9987C19.9093 6.66663 19.8204 6.68069 19.7353 6.70827L19.5353 6.77491C19.0986 6.92022 18.8624 7.39202 19.0077 7.82866L19.0103 7.83655L27.387 32.3149L21.8703 38.6183C21.5675 38.9648 21.6029 39.4913 21.9495 39.7941C22.1015 39.927 22.2967 40.0001 22.4986 39.9999H35.832C38.1332 40 39.9987 38.1345 39.9987 35.8333V10.8333C39.9987 8.5321 38.1332 6.66663 35.8321 6.66663Z" fill="#C9E2F3"/>
<path d="M29.093 32.155C29.0268 32.0094 28.92 31.8859 28.7856 31.7993C28.6511 31.7127 28.4945 31.6667 28.3346 31.6666H20.0013C19.5411 31.6666 19.168 32.0398 19.168 32.5C19.168 32.6001 19.186 32.6995 19.2213 32.7933L21.7213 39.46C21.7721 39.5949 21.8569 39.7143 21.9677 39.8067C22.0784 39.899 22.2111 39.961 22.353 39.9866C22.402 39.9951 22.4516 39.9995 22.5013 40C22.6201 39.9999 22.7374 39.9744 22.8455 39.9252C22.9535 39.8761 23.0499 39.8044 23.128 39.715L28.9613 33.0483C29.0668 32.9278 29.1353 32.7795 29.1586 32.621C29.182 32.4626 29.1592 32.3008 29.093 32.155Z" fill="#1976D2"/>
<path d="M35.8321 18.3333H24.1654C23.7052 18.3333 23.332 17.9602 23.332 17.5C23.332 17.0398 23.7052 16.6666 24.1654 16.6666H35.832C36.2923 16.6666 36.6654 17.0398 36.6654 17.5C36.6654 17.9602 36.2923 18.3333 35.8321 18.3333Z" fill="#455A64"/>
<path d="M29.1666 18.3334C28.7064 18.3334 28.3333 17.9602 28.3333 17.5V15.8334C28.3333 15.3731 28.7064 15 29.1666 15C29.6269 15 30 15.3731 30 15.8334V17.5C30 17.9602 29.6269 18.3334 29.1666 18.3334ZM26.6666 28.3334C26.2064 28.333 25.8336 27.9595 25.8341 27.4993C25.8342 27.3667 25.8659 27.2361 25.9267 27.1182C25.9874 27.0004 26.0754 26.8987 26.1834 26.8217C29.8334 24.2284 32.5 18.9416 32.5 17.5C32.5 17.0398 32.8731 16.6666 33.3334 16.6666C33.7936 16.6666 34.1667 17.0398 34.1667 17.5C34.1667 19.6966 30.9551 25.4766 27.1501 28.1784C27.0089 28.279 26.84 28.3332 26.6666 28.3334Z" fill="#455A64"/>
<path d="M33.3321 30C33.1236 30.0002 32.9226 29.9223 32.7687 29.7816C32.1653 29.2282 26.8387 24.3082 25.8937 21.98C25.7202 21.5533 25.9254 21.0668 26.3521 20.8933C26.7787 20.7198 27.2652 20.925 27.4387 21.3517C28.1203 23.0317 32.332 27.1183 33.897 28.55C34.2376 28.8596 34.2628 29.3866 33.9532 29.7272C33.8746 29.8137 33.7786 29.8826 33.6716 29.9296C33.5646 29.9766 33.4489 30.0006 33.3321 30Z" fill="#455A64"/>
<path d="M29.1216 32.23L18.2884 0.563359C18.2321 0.398997 18.1258 0.256336 17.9845 0.155327C17.8431 0.0543173 17.6737 1.02262e-05 17.5 0L4.16664 0C1.86547 0 0 1.86547 0 4.16664V29.1666C0 31.4678 1.86547 33.3333 4.16664 33.3333H28.3333C28.7935 33.3333 29.1666 32.9602 29.1666 32.4999C29.1666 32.4081 29.1514 32.3169 29.1216 32.23Z" fill="#2196F3"/>
<path d="M15.8342 23.3334C15.6623 23.3334 15.4945 23.2802 15.354 23.1812C15.2134 23.0821 15.107 22.942 15.0492 22.78L11.6676 13.31L8.28594 22.78C8.11383 23.2069 7.62828 23.4134 7.2014 23.2413C7.00719 23.163 6.84958 23.0144 6.75992 22.8252C6.67027 22.6359 6.65515 22.4199 6.71758 22.22L10.8842 10.5534C11.088 10.1203 11.6044 9.93446 12.0374 10.1382C12.2199 10.2241 12.3667 10.3709 12.4526 10.5534L16.6192 22.22C16.7744 22.6521 16.5508 23.1284 16.1192 23.285C16.0277 23.3174 15.9313 23.3338 15.8342 23.3334Z" fill="#FAFAFA"/>
<path d="M13.3347 18.3333H10.0013C9.54109 18.3333 9.16797 17.9602 9.16797 17.5C9.16797 17.0398 9.54109 16.6666 10.0013 16.6666H13.3347C13.7949 16.6666 14.168 17.0398 14.168 17.5C14.168 17.9602 13.7949 18.3333 13.3347 18.3333Z" fill="#FAFAFA"/>
</g>
<defs>
<clipPath id="clip0_1487_10834">
<rect width="40" height="40" fill="white"/>
</clipPath>
</defs>
</svg>
